#!OML:ASF F:\VICON\USERDATA\INSTALL\rory3\rory3.ASF
:FULLY-SPECIFIED
:DEGREES
18
root 0.8532006480726696 17.721802772318505 -15.393889055456011 0.6113400075123421 -7.2197125706931775 -8.965480143491552
lfemur -25.773692614385503 -5.691878675694681 -7.084759777245965
ltibia 12.623811740526218
lfoot -6.506937233027283 13.109876544341361
ltoes -0.4674952235707588
rfemur 11.399385492099059 8.3701773118323 35.48568707243485
rtibia 23.550309313884604
rfoot -17.988289093344875 -5.057513452718621
rtoes -6.620400934783472
lowerback 8.691003097879472 2.9330239827422844 9.205019548295214
upperback -0.29611949339038834 4.959953467631981 2.346412540809688
thorax -4.627072198514201 2.252443017034388 -3.2853737551746467
lowerneck -16.812704234562716 -2.84261542950505 -1.2787724152361162
upperneck 21.771091795632984 -3.68213502240683 0.257254614567753
head 9.702821685617254 -1.7836844112388488 -0.1831653277226939
lclavicle -9.152775297015075e-16 -7.746724830317487e-16
lhumerus -38.73860028643885 6.9987591500883575 81.50190738654723
lradius 21.81500931713788
lwrist 2.1818802551305794
lhand -26.959003094961908 19.654494168484693
lfingers 7.125020000000057
lthumb -0.3804530950148345 49.63389414512109
rclavicle -9.152775297015075e-16 -7.746724830317487e-16
rhumerus -21.92351193137391 -8.06254913772279 -82.99510278366309
rradius 29.72510770871674
rwrist 1.1132254815458769
rhand -18.355897913608295 25.0619051912272
rfingers 7.125020000000057
rthumb 7.926842084964683 -4.7694547841854975
19
root 0.9375114036764771 17.81860051904406 -14.527989430608624 0.02202707703496129 -7.234752530395324 -7.496884375523031
lfemur -24.74609318396242 -3.7194537201925826 -10.409514791141746
ltibia 15.301310682825015
lfoot 0.23017192286695076 5.892655758461191
ltoes -1.708385911241849
rfemur 12.902184664137208 7.80105866012067 33.32959039683866
rtibia 26.202908322513522
rfoot -14.400791596341389 -2.7755378422787684
rtoes -10.656987245298607
lowerback 8.540243628135723 2.913824110923123 7.867062965041934
upperback -0.202097630357355 4.766204274112296 2.1079347075039707
thorax -4.547452587321441 2.1937235742275525 -2.767045833109522
lowerneck -16.949603588391113 -2.8543553264262433 -1.4385598455800408
upperneck 22.056091254863674 -3.615015412867148 0.0913978878270385
head 9.828910830641808 -1.7837444104066542 -0.21042587670977675
lclavicle -9.152775577828692e-16 -7.746725873017373e-16
lhumerus -39.1725999816643 8.868087048860259 80.74980841395457
lradius 20.294109676707173
lwrist 1.1092110083685593
lhand -27.20780231710831 18.485995244478083
lfingers 7.125020000000057
lthumb -0.6207743169423917 48.4647952215013
rclavicle -9.152775577828692e-16 -7.746725873017373e-16
rhumerus -22.88961119700857 -9.356948363879242 -82.56980317765117
rradius 29.25010782278816
rwrist 1.544165123292074
rhand -19.790689624013407 23.01650748900491
rfingers 7.125020000000057
rthumb 6.541900376097644 -6.862462432136888
20
root 0.9908776160105293 17.91849819360897 -13.649489811220299 -1.0373163218468302 -5.646656785514567 -4.494633027067871
lfemur -22.27719455242144 -3.7424836612932593 -14.944307990354503
ltibia 16.29021029217682
lfoot 3.03202590828225 0.12930111645146614
ltoes -3.0354245078054936
rfemur 11.890785221364096 6.226152391201651 29.764295894031218
rtibia 32.99190578522263
rfoot -7.955996092874308 -1.7821097532160808
rtoes -9.70340811688059
lowerback 8.386504168873298 2.6323159903078874 4.809440773307649
upperback -0.3102033230805412 4.050037255154948 1.3735413798466456
thorax -4.793901383835559 1.89811637926621 -1.7586798755673825
lowerneck -16.25200688108148 -3.0291037920973256 -1.4555195728385244
upperneck 22.235290914843116 -3.89499378412639 0.19302295275659498
head 9.76652125368819 -1.9058527167498487 -0.19979805254211236
lclavicle -9.152774954211318e-16 -7.746725172918664e-16
lhumerus -39.319899878223524 10.017585756760031 79.69280985787103
lradius 18.120410190610848
lwrist -0.6389357640669289
lhand -27.039502843285 18.007495685096714
lfingers 7.125020000000057
lthumb -0.45825784311144513 47.98679566159174
rclavicle -9.152774954211318e-16 -7.746725172918664e-16
rhumerus -24.533709947272445 -12.34229657911887 -81.76360392449622
rradius 27.669708202321566
rwrist 2.5871042562636957
rhand -20.067988021905332 22.674007873765294
rfingers 7.125020000000057
rthumb 6.274171978888376 -7.213112038089153
21
root 0.8716622578299221 17.92026013080798 -4.982495535269322 -2.078640171370166 -4.1201185220853 -3.431464336601712
lfemur -21.29363564796226 -2.5633257102022102 -18.21962974568401
ltibia 25.865446103272316
lfoot -1.4885024913323401 -2.721364853278224
ltoes -5.009617758637251
rfemur 5.8835403568198625 3.707494236453842 27.55508940753003
rtibia 51.53791058155526
rfoot 6.011835104263682 0.6313994003992267
rtoes 1.2470709671890918
lowerback 9.934159624470341 2.184411524351419 3.308852933168901
upperback 0.0010593493093051798 3.354902246114556 0.9509120652924836
thorax -5.470262897090336 1.5703278899269058 -1.3085201434305125
lowerneck -16.49273412690004 -3.332920577445665 -1.2381545844788067
upperneck 21.839867872723865 -4.387432010995823 0.448682854392344
head 9.684110500612269 -2.1155269636470853 -0.22059146594265144
lclavicle -7.284051777065594e-16 -6.299767544079051e-16
lhumerus -38.05570244864415 10.222868639608187 79.90933226320358
lradius 19.036012791303634
lwrist 1.5840414665490066
lhand -26.683118259713677 19.760616419521387
lfingers 7.125020000000058
lthumb -0.11366202289639626 49.74852146962169
rclavicle -7.284051777065594e-16 -6.299767544079051e-16
rhumerus -24.516020498015827 -14.947262071093952 -80.43923728262423
rradius 30.57350685273605
rwrist -0.10351860102183075
rhand -17.89888702104735 29.102651286375483
rfingers 7.125020000000058
rthumb 8.368142958673136 -6.631696015209439
22
root 0.8792545510665771 17.96836982609112 -4.424173611347669 -2.9221766567462204 -3.7450682310500167 -1.9806732696913734
lfemur -19.09272798341572 -1.9967226193886964 -20.669006843461958
ltibia 28.781392852570924
lfoot -4.125140261081032 -2.0369581836875503
ltoes -2.7302324057824627
rfemur 0.048265834974994704 1.9572948854626202 25.04633922582016
rtibia 65.11928424113412
rfoot 15.164702199966383 0.4077769955488284
rtoes 12.353385788770805
lowerback 10.4553059613352 2.0967413610983097 1.9290027635750735
upperback 0.11403328449579547 3.073250550595365 0.6496737783960354
thorax -5.653425440487851 1.4606491799950825 -0.7600221589238009
lowerneck -16.306939636558557 -3.399136272799028 -1.305058213968237
upperneck 21.98258152383848 -4.507797025917993 0.6550124456999014
head 9.707855127912136 -2.1591956896484565 -0.15134163359586084
lclavicle -5.56621676314873e-16 -4.969642922424306e-16
lhumerus -37.70617720680646 9.666861195886916 80.33998939137255
lradius 19.77599857596885
lwrist 2.5802763262792254
lhand -27.101278764363276 20.72018634375282
lfingers 7.125020000000058
lthumb -0.517509471654347 50.69857611469293
rclavicle -5.56621676314873e-16 -4.969642922424306e-16
rhumerus -25.343932832592863 -15.504845408279216 -80.32848897689989
rradius 30.2819346549263
rwrist 0.7436818284570075
rhand -17.710540060826265 28.94817401707307
rfingers 7.125020000000058
rthumb 8.550108983055395 -6.810299730293047
23
root 0.865412115055261 18.016359082350775 -4.1136363306093 -3.491794373649689 -3.9664111514391966 -0.8279301808380672
lfemur -16.670770860129885 -2.0021141491278054 -22.505024259122074
ltibia 30.32836349224368
lfoot -6.448857726830036 -0.8301020648830768
ltoes -0.26261238043340907
rfemur -6.220373835651031 0.613491235114517 23.05905938915591
rtibia 75.21763073927764
rfoot 17.27717499797971 -1.9959913490075625
rtoes 17.235222822112867
lowerback 10.78963821706338 1.9700298315264364 0.7715635075018901
upperback 0.22786829508725825 2.766219497283161 0.44069287336204943
thorax -5.769105453749903 1.334924760470575 -0.29779479218425264
lowerneck -16.200916966656198 -3.2697141424163085 -1.3463975482903967
upperneck 22.010081233354434 -4.3231292756996025 0.6251164466108212
head 9.692232219493848 -2.0747101358985165 -0.13170011066255183
lclavicle -7.21943636623016e-16 -6.249735635862418e-16
lhumerus -37.11855910652177 8.914120863540735 80.42789542392939
lradius 19.73162739739493
lwrist 3.505083568931143
lhand -27.87035246881207 20.29318664769194
lfingers 7.125020000000058
lthumb -1.2602533595838517 50.268097202562615
rclavicle -7.21943636623016e-16 -6.249735635862418e-16
rhumerus -26.427977814802578 -16.874022900889056 -80.02516040283714
rradius 28.979488687143004
rwrist 2.23959839021894
rhand -17.597499081348605 29.16824232015527
rfingers 7.125020000000058
rthumb 8.659154800547961 -6.962160453593491
